<?xml version="1.0" encoding="UTF-8" standalone="no"?>
<svg
   height="16px"
   viewBox="0 0 16 16"
   width="16px"
   version="1.1"
   id="svg13"
   sodipodi:docname="build-alt-symbolic-light.svg"
   inkscape:version="1.3.2 (091e20ef0f, 2023-11-25)"
   xmlns:inkscape="http://www.inkscape.org/namespaces/inkscape"
   xmlns:sodipodi="http://sodipodi.sourceforge.net/DTD/sodipodi-0.dtd"
   xmlns="http://www.w3.org/2000/svg"
   xmlns:svg="http://www.w3.org/2000/svg">
  <defs
     id="defs13">
    <filter
       style="color-interpolation-filters:sRGB;"
       inkscape:label="Invert"
       id="filter13"
       x="0"
       y="0"
       width="1"
       height="1">
      <feColorMatrix
         values="1 0 0 0 0 0 1 0 0 0 0 0 1 0 0 -0.21 -0.72 -0.07 2 0 "
         result="fbSourceGraphic"
         id="feColorMatrix13" />
      <feColorMatrix
         result="fbSourceGraphicAlpha"
         in="fbSourceGraphic"
         values="0 0 0 -1 0 0 0 0 -1 0 0 0 0 -1 0 0 0 0 1 0"
         id="feColorMatrix14" />
      <feColorMatrix
         id="feColorMatrix15"
         type="hueRotate"
         values="180"
         result="color1"
         in="fbSourceGraphic" />
      <feColorMatrix
         id="feColorMatrix16"
         values="1 0 0 0 0 0 1 0 0 0 0 0 1 0 0 -0.21 -0.72 -0.07 2 0 "
         result="fbSourceGraphic" />
      <feColorMatrix
         result="fbSourceGraphicAlpha"
         in="fbSourceGraphic"
         values="0 0 0 -1 0 0 0 0 -1 0 0 0 0 -1 0 0 0 0 1 0"
         id="feColorMatrix17" />
      <feColorMatrix
         id="feColorMatrix18"
         type="hueRotate"
         values="180"
         result="color1"
         in="fbSourceGraphic" />
      <feColorMatrix
         id="feColorMatrix19"
         values="1 0 0 0 0 0 1 0 0 0 0 0 1 0 0 -0.21 -0.72 -0.07 2 0 "
         result="fbSourceGraphic" />
      <feColorMatrix
         result="fbSourceGraphicAlpha"
         in="fbSourceGraphic"
         values="0 0 0 -1 0 0 0 0 -1 0 0 0 0 -1 0 0 0 0 1 0"
         id="feColorMatrix20" />
      <feColorMatrix
         id="feColorMatrix21"
         values="-1 0 0 0 1 0 -1 0 0 1 0 0 -1 0 1 -0.21 -0.72 -0.07 2 0 "
         result="color2"
         in="fbSourceGraphic" />
    </filter>
  </defs>
  <sodipodi:namedview
     id="namedview13"
     pagecolor="#505050"
     bordercolor="#eeeeee"
     borderopacity="1"
     inkscape:showpageshadow="0"
     inkscape:pageopacity="0"
     inkscape:pagecheckerboard="0"
     inkscape:deskcolor="#d1d1d1"
     inkscape:zoom="50.3125"
     inkscape:cx="8"
     inkscape:cy="8"
     inkscape:window-width="1920"
     inkscape:window-height="1011"
     inkscape:window-x="0"
     inkscape:window-y="0"
     inkscape:window-maximized="1"
     inkscape:current-layer="svg13" />
  <filter
     id="a"
     height="1"
     width="1"
     x="0"
     y="0">
    <feColorMatrix
       color-interpolation-filters="sRGB"
       values="0 0 0 0 1 0 0 0 0 1 0 0 0 0 1 0 0 0 1 0"
       id="feColorMatrix1" />
  </filter>
  <mask
     id="b">
    <g
       filter="url(#a)"
       id="g1">
      <path
         d="m -1.6 -1.6 h 19.2 v 19.2 h -19.2 z"
         fill-opacity="0.5"
         id="path1" />
    </g>
  </mask>
  <clipPath
     id="c">
    <path
       d="m 0 0 h 1600 v 1200 h -1600 z"
       id="path2" />
  </clipPath>
  <mask
     id="d">
    <g
       filter="url(#a)"
       id="g3">
      <path
         d="m -1.6 -1.6 h 19.2 v 19.2 h -19.2 z"
         fill-opacity="0.7"
         id="path3" />
    </g>
  </mask>
  <clipPath
     id="e">
    <path
       d="m 0 0 h 1600 v 1200 h -1600 z"
       id="path4" />
  </clipPath>
  <mask
     id="f">
    <g
       filter="url(#a)"
       id="g5">
      <path
         d="m -1.6 -1.6 h 19.2 v 19.2 h -19.2 z"
         fill-opacity="0.35"
         id="path5" />
    </g>
  </mask>
  <clipPath
     id="g">
    <path
       d="m 0 0 h 1600 v 1200 h -1600 z"
       id="path6" />
  </clipPath>
  <path
     d="M 10.785156,1.082031 C 11.34375,1.59375 12.007812,2.289062 12.964844,3.25 c 0.28125,0.28125 0.390625,0.746094 0.175781,1.246094 -0.09766,0.25 -0.03906,0.53125 0.152344,0.71875 0.261719,0.253906 0.679687,0.253906 0.945312,0 C 14.5,4.953125 15.03125,5.128906 15.160156,5.257812 l 0.480469,0.480469 v -0.00391 c 0.394531,0.390625 0.394531,1.027344 0,1.417969 l -2.363281,2.367187 c -0.390625,0.390625 -1.027344,0.390625 -1.417969,0 L 11.398438,8.996094 c -0.261719,-0.261719 -0.261719,-0.683594 0,-0.945313 0.261718,-0.261719 0.261718,-0.683593 0,-0.945312 C 11.136719,6.851562 10.652344,6.808594 10.386719,7.0625 L 9.214844,8.167969 6.773438,5.722656 c 0,0 0.839843,-0.828125 1.085937,-1.066406 C 8.476562,4.03125 7.921875,3.503906 7.648438,3.238281 6.984375,2.578125 5.609375,2.316406 4.671875,2.355469 4.378906,2.367188 4.113281,2.1875 4.011719,1.914062 3.914062,1.636719 4.007812,1.328125 4.246094,1.152344 7,-0.0078125 9.699219,-0.0078125 10.785156,1.082031 Z M 8.335938,9.117188 3.046875,14.394531 c -0.371094,0.375 -0.671875,0.625 -1.019531,0.625 -1.089844,-0.02734 -1.9726565,-0.910156 -2.0000002,-2 0,-0.53125 0.1289062,-0.726562 0.5039062,-1.097656 L 5.828125,6.648438 Z m 0,0"
     fill="#222222"
     id="path7"
     style="display:inline;filter:url(#filter13)" />
</svg>
