<?xml version="1.0" encoding="UTF-8"?>
<svg xmlns="http://www.w3.org/2000/svg" xmlns:xlink="http://www.w3.org/1999/xlink" height="16px" viewBox="0 0 16 16" width="16px"><filter id="a" height="100%" width="100%" x="0%" y="0%"><feColorMatrix color-interpolation-filters="sRGB" values="0 0 0 0 1 0 0 0 0 1 0 0 0 0 1 0 0 0 1 0"/></filter><mask id="b"><g filter="url(#a)"><path d="m -1.6 -1.6 h 19.2 v 19.2 h -19.2 z" fill-opacity="0.5"/></g></mask><clipPath id="c"><path d="m 0 0 h 1600 v 1200 h -1600 z"/></clipPath><mask id="d"><g filter="url(#a)"><path d="m -1.6 -1.6 h 19.2 v 19.2 h -19.2 z" fill-opacity="0.7"/></g></mask><clipPath id="e"><path d="m 0 0 h 1600 v 1200 h -1600 z"/></clipPath><mask id="f"><g filter="url(#a)"><path d="m -1.6 -1.6 h 19.2 v 19.2 h -19.2 z" fill-opacity="0.35"/></g></mask><clipPath id="g"><path d="m 0 0 h 1600 v 1200 h -1600 z"/></clipPath><path d="m 10.785156 1.082031 c 0.558594 0.511719 1.222656 1.207031 2.179688 2.167969 c 0.28125 0.28125 0.390625 0.746094 0.175781 1.246094 c -0.097656 0.25 -0.039063 0.53125 0.152344 0.71875 c 0.261719 0.253906 0.679687 0.253906 0.945312 0 c 0.261719 -0.261719 0.792969 -0.085938 0.921875 0.042968 l 0.480469 0.480469 v -0.003906 c 0.394531 0.390625 0.394531 1.027344 0 1.417969 l -2.363281 2.367187 c -0.390625 0.390625 -1.027344 0.390625 -1.417969 0 l -0.460937 -0.523437 c -0.261719 -0.261719 -0.261719 -0.683594 0 -0.945313 c 0.261718 -0.261719 0.261718 -0.683593 0 -0.945312 c -0.261719 -0.253907 -0.746094 -0.296875 -1.011719 -0.042969 l -1.171875 1.105469 l -2.441406 -2.445313 s 0.839843 -0.828125 1.085937 -1.066406 c 0.617187 -0.625 0.0625 -1.152344 -0.210937 -1.417969 c -0.664063 -0.660156 -2.039063 -0.921875 -2.976563 -0.882812 c -0.292969 0.011719 -0.558594 -0.167969 -0.660156 -0.441407 c -0.097657 -0.277343 -0.003907 -0.585937 0.234375 -0.761718 c 2.753906 -1.1601565 5.453125 -1.1601565 6.539062 -0.070313 z m -2.449218 8.035157 l -5.289063 5.277343 c -0.371094 0.375 -0.671875 0.625 -1.019531 0.625 c -1.089844 -0.027343 -1.9726565 -0.910156 -2.0000002 -2 c 0 -0.53125 0.1289062 -0.726562 0.5039062 -1.097656 l 5.296875 -5.273437 z m 0 0" fill="#222222"/><g mask="url(#b)"><g clip-path="url(#c)" transform="matrix(1 0 0 1 -220 -604)"><path d="m 550 182 c -0.351562 0.003906 -0.695312 0.101562 -1 0.28125 v 3.4375 c 0.304688 0.179688 0.648438 0.277344 1 0.28125 c 1.105469 0 2 -0.894531 2 -2 s -0.894531 -2 -2 -2 z m 0 5 c -0.339844 0 -0.679688 0.058594 -1 0.175781 v 6.824219 h 4 v -4 c 0 -1.65625 -1.34375 -3 -3 -3 z m 0 0"/></g></g><g mask="url(#d)"><g clip-path="url(#e)" transform="matrix(1 0 0 1 -220 -604)"><path d="m 569 182 v 4 c 1.105469 0 2 -0.894531 2 -2 s -0.894531 -2 -2 -2 z m 0 5 v 7 h 3 v -4 c 0 -1.65625 -1.34375 -3 -3 -3 z m 0 0"/></g></g><g mask="url(#f)"><g clip-path="url(#g)" transform="matrix(1 0 0 1 -220 -604)"><path d="m 573 182.269531 v 3.449219 c 0.613281 -0.355469 0.996094 -1.007812 1 -1.71875 c 0 -0.714844 -0.382812 -1.375 -1 -1.730469 z m 0 4.90625 v 6.824219 h 2 v -4 c 0 -1.269531 -0.800781 -2.402344 -2 -2.824219 z m 0 0"/></g></g></svg>
